<?xml version="1.0" encoding="UTF-8"?>
<svg width="16px" height="16px" viewBox="0 0 16 16" version="1.1" xmlns="http://www.w3.org/2000/svg">
    <g stroke="none" stroke-width="1" fill="none" fill-rule="evenodd">
        <g fill="#CCCCCC">
            <path d="M8,1 C8.55228475,1 9,1.44771525 9,2 C9,2.55228475 8.55228475,3 8,3 C7.44771525,3 7,2.55228475 7,2 C7,1.44771525 7.44771525,1 8,1 Z M11.5,2.5 C12.0522847,2.5 12.5,2.94771525 12.5,3.5 C12.5,4.05228475 12.0522847,4.5 11.5,4.5 C10.9477153,4.5 10.5,4.05228475 10.5,3.5 C10.5,2.94771525 10.9477153,2.5 11.5,2.5 Z M13.5,6 C14.0522847,6 14.5,6.44771525 14.5,7 C14.5,7.55228475 14.0522847,8 13.5,8 C12.9477153,8 12.5,7.55228475 12.5,7 C12.5,6.44771525 12.9477153,6 13.5,6 Z M12,10 C12.5522847,10 13,10.4477153 13,11 C13,11.5522847 12.5522847,12 12,12 C11.4477153,12 11,11.5522847 11,11 C11,10.4477153 11.4477153,10 12,10 Z M8,13 C8.55228475,13 9,13.4477153 9,14 C9,14.5522847 8.55228475,15 8,15 C7.44771525,15 7,14.5522847 7,14 C7,13.4477153 7.44771525,13 8,13 Z M4,10 C4.55228475,10 5,10.4477153 5,11 C5,11.5522847 4.55228475,12 4,12 C3.44771525,12 3,11.5522847 3,11 C3,10.4477153 3.44771525,10 4,10 Z M2.5,6 C3.05228475,6 3.5,6.44771525 3.5,7 C3.5,7.55228475 3.05228475,8 2.5,8 C1.94771525,8 1.5,7.55228475 1.5,7 C1.5,6.44771525 1.94771525,6 2.5,6 Z M4.5,2.5 C5.05228475,2.5 5.5,2.94771525 5.5,3.5 C5.5,4.05228475 5.05228475,4.5 4.5,4.5 C3.94771525,4.5 3.5,4.05228475 3.5,3.5 C3.5,2.94771525 3.94771525,2.5 4.5,2.5 Z">
                <animateTransform 
                    attributeName="transform" 
                    type="rotate"
                    from="0 8 8"
                    to="360 8 8" 
                    dur="1s" 
                    repeatCount="indefinite" />
            </path>
        </g>
    </g>
</svg>
